# xmcd
#
# Track frame offsets:
#	150
#	19395
#	43999
#	64619
#	85089
#	101099
#	114564
#	130811
#	147553
#	160666
#	174856
#	195562
#
# Disc length: 2854 seconds
# Revision: 2
# Processed by: cddbd v1.5.2PL0 Copyright (c) Steve Scherf et al.
# Submitted via: dBpowerAMP V12.0
#
DISCID=a20b240c
DTITLE=Matt Andersen - Weightless
DYEAR=2014
DGENRE=Blues
TTITLE0=I Lost My Way
TTITLE1=My Last Day
TTITLE2=So Easy
TTITLE3=Weightless
TTITLE4=Alberta Gold
TTITLE5=Let's Go To Bed
TTITLE6=The Fight
TTITLE7=Drift Away
TTITLE8=Let You Down
TTITLE9=City Of Dreams
TTITLE10=Between The Lines
TTITLE11=What Will You Leave
EXTD=
EXTT0=
EXTT1=
EXTT2=
EXTT3=
EXTT4=
EXTT5=
EXTT6=
EXTT7=
EXTT8=
EXTT9=
EXTT10=
EXTT11=
PLAYORDER=
